<svg width="28" height="28" viewBox="0 0 28 28" fill="none" xmlns="http://www.w3.org/2000/svg">
<circle cx="14" cy="14" r="14" fill="#FFE598"/>
<path d="M8.521 12.041H7.27V10.7C7.726 10.682 8.077 10.589 8.323 10.421C8.575 10.253 8.737 9.977 8.809 9.593H10.231V17.486H8.521V12.041ZM13.5314 17.63C13.1234 17.63 12.7214 17.576 12.3254 17.468C11.9354 17.366 11.5904 17.216 11.2904 17.018L11.4704 15.641C11.8244 15.851 12.1544 16.004 12.4604 16.1C12.7724 16.19 13.0874 16.235 13.4054 16.235C13.6034 16.235 13.7594 16.199 13.8734 16.127C13.9934 16.049 14.0534 15.944 14.0534 15.812C14.0534 15.674 13.9664 15.56 13.7924 15.47C13.6184 15.374 13.3214 15.254 12.9014 15.11L12.5324 14.984C12.1004 14.834 11.7644 14.606 11.5244 14.3C11.2904 13.988 11.1734 13.637 11.1734 13.247C11.1734 12.671 11.3774 12.224 11.7854 11.906C12.1934 11.588 12.7514 11.429 13.4594 11.429C14.2334 11.429 14.8934 11.609 15.4394 11.969L15.2054 13.265C14.9954 13.133 14.7464 13.028 14.4584 12.95C14.1764 12.866 13.8974 12.824 13.6214 12.824C13.4054 12.824 13.2404 12.857 13.1264 12.923C13.0124 12.989 12.9554 13.082 12.9554 13.202C12.9554 13.328 13.0124 13.424 13.1264 13.49C13.2404 13.55 13.4504 13.628 13.7564 13.724L13.9454 13.787L14.2784 13.895C14.7584 14.051 15.1274 14.282 15.3854 14.588C15.6494 14.894 15.7814 15.269 15.7814 15.713C15.7814 16.331 15.5714 16.805 15.1514 17.135C14.7374 17.465 14.1974 17.63 13.5314 17.63ZM18.9348 17.639C18.3528 17.639 17.9058 17.492 17.5938 17.198C17.2818 16.91 17.1258 16.442 17.1258 15.794V13.184H16.1448V11.753H17.1258V9.863H18.8358V11.753H20.2038V13.184H18.8358V15.713C18.8358 15.863 18.8778 15.98 18.9618 16.064C19.0458 16.142 19.1598 16.184 19.3038 16.19C19.4418 16.196 19.5888 16.19 19.7448 16.172C19.9008 16.154 20.0238 16.127 20.1138 16.091L20.2038 17.396C19.8498 17.558 19.4268 17.639 18.9348 17.639Z" fill="#D48B4B"/>
</svg>
