<svg width="28" height="28" viewBox="0 0 28 28" fill="none" xmlns="http://www.w3.org/2000/svg">
<circle cx="14" cy="14" r="14" fill="#D0D7DB"/>
<path d="M5.36 16.19L7.988 13.247C8.264 12.935 8.459 12.671 8.573 12.455C8.693 12.233 8.753 12.005 8.753 11.771C8.753 11.525 8.672 11.33 8.51 11.186C8.348 11.036 8.132 10.961 7.862 10.961C7.244 10.961 6.92 11.327 6.89 12.059H5.36C5.36 11.507 5.471 11.036 5.693 10.646C5.915 10.25 6.218 9.953 6.602 9.755C6.986 9.551 7.415 9.449 7.889 9.449C8.369 9.449 8.801 9.545 9.185 9.737C9.575 9.923 9.881 10.187 10.103 10.529C10.325 10.871 10.436 11.267 10.436 11.717C10.436 12.059 10.382 12.371 10.274 12.653C10.172 12.929 10.025 13.199 9.833 13.463C9.641 13.721 9.374 14.033 9.032 14.399L7.565 15.974H10.445V17.486H5.36V16.19ZM11.3408 11.573H12.9608V12.014C13.1348 11.822 13.3508 11.678 13.6088 11.582C13.8668 11.48 14.1398 11.429 14.4278 11.429C15.0338 11.429 15.5228 11.621 15.8948 12.005C16.2668 12.389 16.4528 13.025 16.4528 13.913V17.486H14.7248V13.814C14.7248 13.514 14.6498 13.286 14.4998 13.13C14.3498 12.968 14.1458 12.887 13.8878 12.887C13.6298 12.887 13.4228 12.965 13.2668 13.121C13.1168 13.271 13.0418 13.487 13.0418 13.769V17.486H11.3408V11.573ZM19.4564 17.63C18.7964 17.63 18.2654 17.438 17.8634 17.054C17.4614 16.67 17.2604 16.034 17.2604 15.146V13.913C17.2604 13.025 17.4614 12.389 17.8634 12.005C18.2654 11.621 18.7964 11.429 19.4564 11.429C19.6784 11.429 19.9004 11.465 20.1224 11.537C20.3504 11.603 20.5484 11.702 20.7164 11.834V9.773H22.4534V17.486H20.8424V17.045C20.6744 17.231 20.4614 17.375 20.2034 17.477C19.9454 17.579 19.6964 17.63 19.4564 17.63ZM19.8884 16.181C20.1104 16.181 20.3114 16.109 20.4914 15.965C20.6714 15.821 20.7614 15.608 20.7614 15.326V13.697C20.7614 13.433 20.6714 13.232 20.4914 13.094C20.3114 12.95 20.1104 12.878 19.8884 12.878C19.6664 12.878 19.4654 12.953 19.2854 13.103C19.1114 13.247 19.0244 13.46 19.0244 13.742V15.326C19.0244 15.608 19.1114 15.821 19.2854 15.965C19.4654 16.109 19.6664 16.181 19.8884 16.181Z" fill="#828E96"/>
</svg>
