<svg width="28" height="28" viewBox="0 0 28 28" fill="none" xmlns="http://www.w3.org/2000/svg">
<circle cx="14" cy="14" r="14" fill="#E6BA99"/>
<path d="M8.808 17.63C8.352 17.63 7.935 17.546 7.557 17.378C7.185 17.216 6.876 16.985 6.63 16.685C6.39 16.379 6.24 16.025 6.18 15.623L7.701 15.299C7.767 15.545 7.899 15.743 8.097 15.893C8.295 16.043 8.532 16.118 8.808 16.118C9.12 16.118 9.375 16.025 9.573 15.839C9.777 15.647 9.879 15.383 9.879 15.047V14.984C9.879 14.642 9.765 14.375 9.537 14.183C9.309 13.991 8.991 13.895 8.583 13.895H7.584V12.707L9.267 11.078H6.612V9.593H11.256V11.078L9.555 12.725C9.945 12.767 10.29 12.89 10.59 13.094C10.896 13.292 11.133 13.55 11.301 13.868C11.469 14.18 11.553 14.522 11.553 14.894V15.137C11.553 15.653 11.43 16.1 11.184 16.478C10.938 16.856 10.605 17.141 10.185 17.333C9.765 17.531 9.306 17.63 8.808 17.63ZM12.3671 11.573H14.0231V12.023C14.1671 11.825 14.3561 11.678 14.5901 11.582C14.8301 11.48 15.0701 11.429 15.3101 11.429C15.6641 11.429 15.9551 11.516 16.1831 11.69L16.0931 13.211C15.8531 13.091 15.5531 13.031 15.1931 13.031C14.8571 13.031 14.5931 13.106 14.4011 13.256C14.2151 13.406 14.1161 13.616 14.1041 13.886V17.486H12.3671V11.573ZM18.8304 17.63C18.1704 17.63 17.6394 17.438 17.2374 17.054C16.8354 16.67 16.6344 16.034 16.6344 15.146V13.913C16.6344 13.025 16.8354 12.389 17.2374 12.005C17.6394 11.621 18.1704 11.429 18.8304 11.429C19.0524 11.429 19.2744 11.465 19.4964 11.537C19.7244 11.603 19.9224 11.702 20.0904 11.834V9.773H21.8274V17.486H20.2164V17.045C20.0484 17.231 19.8354 17.375 19.5774 17.477C19.3194 17.579 19.0704 17.63 18.8304 17.63ZM19.2624 16.181C19.4844 16.181 19.6854 16.109 19.8654 15.965C20.0454 15.821 20.1354 15.608 20.1354 15.326V13.697C20.1354 13.433 20.0454 13.232 19.8654 13.094C19.6854 12.95 19.4844 12.878 19.2624 12.878C19.0404 12.878 18.8394 12.953 18.6594 13.103C18.4854 13.247 18.3984 13.46 18.3984 13.742V15.326C18.3984 15.608 18.4854 15.821 18.6594 15.965C18.8394 16.109 19.0404 16.181 19.2624 16.181Z" fill="#986E4C"/>
</svg>
