<svg width="15" height="15" viewBox="0 0 15 15" fill="none" xmlns="http://www.w3.org/2000/svg">
<g clip-path="url(#clip0_488_2664)">
<path d="M13.5 0H1.5C0.671573 0 0 0.671573 0 1.5V13.5C0 14.3284 0.671573 15 1.5 15H13.5C14.3284 15 15 14.3284 15 13.5V1.5C15 0.671573 14.3284 0 13.5 0Z" fill="#0545B1"/>
<path d="M11.375 5.22954V10.4747C11.375 11.3084 10.5802 12 9.60716 12H6.65723C3.75003 12 3.75 9.62536 3.75 9.62536V8.45187C3.75 8.45187 3.93351 6.30631 6.65723 6.31599H7.90251V5.24286C7.90251 5.24286 7.90251 4.68864 7.21887 4.68864H5.63718C5.05941 4.68864 4.49614 4.3445 4.49614 3.84764C4.5304 3.57509 4.66284 3.325 4.86796 3.1455C5.07307 2.96599 5.33639 2.86972 5.60726 2.87522H8.5914C11.375 2.8889 11.375 5.22954 11.375 5.22954ZM6.51714 10.2006H7.89826V8.11074H6.51714C5.73485 8.11074 5.83546 9.15482 5.83546 9.15482C5.83546 9.15482 5.75623 10.2006 6.51714 10.2006Z" fill="white"/>
</g>
<defs>
<clipPath id="clip0_488_2664">
<rect width="15" height="15" fill="white"/>
</clipPath>
</defs>
</svg>
