<svg width="24" height="24" viewBox="0 0 24 24" fill="none" xmlns="http://www.w3.org/2000/svg">
<path d="M2.54733 16.9628C3.58138 19.0535 5.25845 20.7577 7.33232 21.8251C9.39132 22.8823 11.7389 23.2394 14.0191 22.842C16.3064 22.4399 18.4019 21.3078 19.9921 19.6152C21.597 17.9066 22.6189 15.7331 22.9107 13.4071C23.2073 11.0758 22.7607 8.71045 21.6347 6.64777C20.5192 4.60081 18.7759 2.96621 16.6615 1.9847C14.5614 1.01195 12.2012 0.751025 9.93932 1.24154C7.67821 1.73168 5.82532 2.84642 4.29266 4.60898C4.10811 4.80454 3.39433 5.59415 2.80155 6.78589M6.49999 7.11103L2.089 7.99108L1 3.44412M12 8.33333V13.2225L15.6666 15.6671" stroke="white" stroke-width="2" stroke-linecap="round" stroke-linejoin="round"/>
</svg>
