<svg width="22" height="23" viewBox="0 0 22 23" fill="none" xmlns="http://www.w3.org/2000/svg">
<path d="M15.678 10.6294L8.48469 7.03158C8.28133 6.92982 8.05534 6.88176 7.82817 6.89197C7.60101 6.90218 7.38023 6.97031 7.18682 7.0899C6.99341 7.20948 6.8338 7.37654 6.72316 7.57521C6.61252 7.77387 6.55452 7.99752 6.55469 8.22491V15.0205C6.55452 15.2479 6.61252 15.4715 6.72316 15.6702C6.8338 15.8688 6.99341 16.0359 7.18682 16.1555C7.38023 16.2751 7.60101 16.3432 7.82817 16.3534C8.05534 16.3636 8.28133 16.3156 8.48469 16.2138L15.678 12.616C15.8623 12.5236 16.0173 12.3818 16.1256 12.2064C16.2339 12.031 16.2913 11.8289 16.2913 11.6227C16.2913 11.4165 16.2339 11.2144 16.1256 11.039C16.0173 10.8636 15.8623 10.7217 15.678 10.6294Z" stroke="white" stroke-width="2" stroke-linecap="round" stroke-linejoin="round"/>
<path d="M11 21.625C16.5228 21.625 21 17.1478 21 11.625C21 6.10215 16.5228 1.625 11 1.625C5.47715 1.625 1 6.10215 1 11.625C1 17.1478 5.47715 21.625 11 21.625Z" stroke="white" stroke-width="2"/>
</svg>
