<svg width="25" height="21" viewBox="0 0 25 21" fill="none" xmlns="http://www.w3.org/2000/svg">
<path fill-rule="evenodd" clip-rule="evenodd" d="M12 1.65953C11.946 1.75349 11.8856 1.8614 11.8149 1.98884L11.7237 2.15256L11.7023 2.18977C11.6298 2.32372 11.5088 2.54512 11.307 2.6986C11.1014 2.85488 10.853 2.90884 10.7088 2.94046L10.6679 2.94884L10.4912 2.98884C10.3274 3.02605 10.1944 3.05581 10.0819 3.08465C10.1553 3.17488 10.2512 3.28837 10.3758 3.43442L10.4967 3.57581L10.5247 3.60744C10.6251 3.72372 10.787 3.90977 10.8623 4.15163C10.9367 4.38977 10.9107 4.63535 10.8949 4.78977C10.8932 4.80433 10.8917 4.81891 10.8902 4.83349L10.8716 5.02233C10.8577 5.16488 10.8447 5.30751 10.8326 5.45023C10.9302 5.40744 11.04 5.35721 11.1712 5.29674L11.3377 5.22047L11.3749 5.20186C11.5088 5.13953 11.7405 5.02977 12 5.02977C12.2595 5.02977 12.4912 5.13953 12.6251 5.20279L12.6623 5.22047L12.8288 5.29674C12.9591 5.35721 13.0707 5.40837 13.1674 5.45023C13.1553 5.30751 13.1423 5.16488 13.1284 5.02233L13.1098 4.83349C13.1083 4.81891 13.1068 4.80433 13.1051 4.78977C13.0893 4.63442 13.0633 4.38977 13.1377 4.15163C13.2121 3.90977 13.3749 3.72372 13.4753 3.60744L13.5033 3.57581L13.6242 3.43442C13.7488 3.28837 13.8447 3.17488 13.9181 3.08465C13.8056 3.05674 13.6726 3.02605 13.5088 2.98884L13.3321 2.94884L13.2912 2.93953C13.147 2.90884 12.8986 2.85488 12.693 2.69767C12.4912 2.54512 12.3702 2.32372 12.2977 2.1907L12.2763 2.15256L12.1851 1.98884C12.1144 1.8614 12.0549 1.75349 12 1.65953ZM11.0828 0.511628C11.2428 0.302326 11.533 0 12 0C12.467 0 12.7572 0.302326 12.9172 0.511628C13.0707 0.710698 13.2242 0.986977 13.3823 1.2707L13.4037 1.30884L13.4949 1.47349L13.5479 1.56651L13.64 1.58791L13.8167 1.62791L13.8614 1.63721C14.1656 1.70698 14.4688 1.77488 14.7014 1.86698C14.9581 1.96837 15.306 2.16465 15.4409 2.59721C15.573 3.02047 15.4065 3.37953 15.2614 3.61116C15.1265 3.82512 14.9219 4.06326 14.7126 4.30791L14.6847 4.34047L14.5637 4.48279L14.4874 4.57302C14.4893 4.60651 14.494 4.64558 14.4986 4.69861L14.5172 4.88744L14.5209 4.93023C14.5526 5.25767 14.5833 5.57395 14.5721 5.82698C14.5609 6.09302 14.4977 6.49488 14.1367 6.76744C13.7647 7.05023 13.3553 6.98884 13.0949 6.91349C12.8549 6.84558 12.5712 6.71442 12.2856 6.58326L12.2456 6.56465L12.0781 6.48744L12 6.45116L11.9209 6.48837L11.7544 6.56465L11.7135 6.58326C11.4288 6.71442 11.146 6.84558 10.9051 6.91349C10.6447 6.98791 10.2353 7.05023 9.86326 6.76744C9.50326 6.49488 9.43907 6.09302 9.42791 5.82791C9.41674 5.57395 9.44651 5.25767 9.47907 4.93023L9.48279 4.88744L9.5014 4.69861L9.51349 4.57302C9.48795 4.54278 9.46221 4.5127 9.43628 4.48279L9.31535 4.34047L9.28744 4.30791C9.07814 4.06326 8.87349 3.82419 8.73861 3.61023C8.59349 3.37953 8.42698 3.02047 8.55907 2.59628C8.69302 2.16558 9.04186 1.96837 9.2986 1.86698C9.53116 1.77488 9.83442 1.70698 10.1386 1.63814L10.1823 1.62884L10.36 1.58791L10.453 1.56651L10.5051 1.47349L10.5963 1.30884L10.6177 1.2707C10.7758 0.986977 10.9293 0.710698 11.0828 0.511628ZM11.0242 7.44186H12.9758C13.5944 7.44186 14.1274 7.44186 14.5544 7.49954C15.0121 7.56093 15.4502 7.69954 15.8056 8.05488C16.1609 8.41023 16.2995 8.84837 16.3609 9.30605C16.4186 9.73302 16.4186 10.266 16.4186 10.8847V13.1786C16.5712 13.1321 16.7284 13.1023 16.8874 13.0809C17.3144 13.0233 17.8474 13.0233 18.466 13.0233H18.5572C19.1758 13.0233 19.7088 13.0233 20.1358 13.0809C20.5935 13.1423 21.0316 13.2809 21.387 13.6363C21.7423 13.9916 21.8809 14.4298 21.9423 14.8874C22 15.3144 22 15.8474 22 16.466V19.3023C22 19.4874 21.9265 19.6648 21.7957 19.7957C21.6648 19.9265 21.4874 20 21.3023 20C21.1173 20 20.9398 19.9265 20.809 19.7957C20.6782 19.6648 20.6047 19.4874 20.6047 19.3023V16.5116C20.6047 15.8344 20.6028 15.3953 20.56 15.0735C20.5191 14.7712 20.453 14.6763 20.4 14.6233C20.347 14.5702 20.2521 14.5042 19.9498 14.4633C19.627 14.4205 19.1888 14.4186 18.5116 14.4186C17.8344 14.4186 17.3953 14.4205 17.0735 14.4633C16.7712 14.5042 16.6763 14.5702 16.6233 14.6233C16.5702 14.6763 16.5042 14.7712 16.4633 15.0735C16.4205 15.3963 16.4186 15.8344 16.4186 16.5116V19.3023C16.4186 19.4874 16.3451 19.6648 16.2143 19.7957C16.0834 19.9265 15.906 20 15.7209 20C15.5359 20 15.3584 19.9265 15.2276 19.7957C15.0968 19.6648 15.0233 19.4874 15.0233 19.3023V10.9302C15.0233 10.253 15.0214 9.81395 14.9786 9.49209C14.9377 9.18977 14.8716 9.09488 14.8186 9.04186C14.7656 8.98884 14.6707 8.92279 14.3684 8.88186C14.0456 8.83907 13.6074 8.83721 12.9302 8.83721H11.0698C10.3926 8.83721 9.95349 8.83907 9.63163 8.88186C9.3293 8.92279 9.23442 8.98884 9.1814 9.04186C9.12837 9.09488 9.06233 9.18977 9.0214 9.49209C8.97861 9.81488 8.97674 10.253 8.97674 10.9302V19.3023C8.97674 19.4874 8.90324 19.6648 8.7724 19.7957C8.64156 19.9265 8.4641 20 8.27907 20C8.09404 20 7.91658 19.9265 7.78574 19.7957C7.6549 19.6648 7.5814 19.4874 7.5814 19.3023C7.5814 18.6251 7.57954 18.186 7.53674 17.8642C7.49581 17.5619 7.42977 17.467 7.37674 17.414C7.32372 17.3609 7.22884 17.2949 6.92651 17.254C6.60372 17.2112 6.16558 17.2093 5.48837 17.2093C4.81116 17.2093 4.37209 17.2112 4.05023 17.254C3.74791 17.2949 3.65302 17.3609 3.6 17.414C3.54698 17.467 3.48093 17.5619 3.44 17.8642C3.39721 18.187 3.39535 18.6251 3.39535 19.3023C3.39535 19.4874 3.32184 19.6648 3.191 19.7957C3.06017 19.9265 2.88271 20 2.69767 20C2.51264 20 2.33518 19.9265 2.20434 19.7957C2.0735 19.6648 2 19.4874 2 19.3023V19.2558C2 18.6381 2 18.1051 2.05767 17.6781C2.11907 17.2205 2.25767 16.7823 2.61302 16.427C2.96837 16.0716 3.40744 15.933 3.86419 15.8716C4.29116 15.814 4.82419 15.814 5.44279 15.814H5.53395C6.15256 15.814 6.68558 15.814 7.11256 15.8716C7.27163 15.893 7.42884 15.9237 7.5814 15.9693V10.8847C7.5814 10.266 7.5814 9.73302 7.63907 9.30605C7.70047 8.84837 7.83907 8.41023 8.19442 8.05488C8.54977 7.69954 8.98884 7.56093 9.44558 7.49954C9.87256 7.44186 10.4056 7.44186 11.0242 7.44186Z" fill="white"/>
<rect x="0.140625" y="19.5352" width="24.186" height="1.30233" rx="0.651163" fill="white"/>
</svg>
